<svg width="1920" height="1024" viewBox="0 0 1920 1024" fill="none" xmlns="http://www.w3.org/2000/svg">
<g clip-path="url(#clip0_2_2)">
<rect width="1920" height="1024" fill="#FCFDFF"/>
<path d="M1645.81 150.336L1813.15 165.344L1716.48 302.758L1645.81 150.336Z" fill="#A0A7EE" fill-opacity="0.13"/>
<circle cx="189" cy="199" r="319" fill="#B7ACFA" fill-opacity="0.05"/>
<circle cx="1406.5" cy="540.5" r="2.5" fill="#1B2238" fill-opacity="0.23"/>
<circle cx="1415.5" cy="540.5" r="2.5" fill="#1B2238" fill-opacity="0.23"/>
<circle cx="1424.5" cy="540.5" r="2.5" fill="#1B2238" fill-opacity="0.23"/>
<circle cx="1433.5" cy="540.5" r="2.5" fill="#1B2238" fill-opacity="0.23"/>
<circle cx="1442.5" cy="540.5" r="2.5" fill="#1B2238" fill-opacity="0.23"/>
<circle cx="1406.5" cy="549.5" r="2.5" fill="#1B2238" fill-opacity="0.23"/>
<circle cx="1415.5" cy="549.5" r="2.5" fill="#1B2238" fill-opacity="0.23"/>
<circle cx="1424.5" cy="549.5" r="2.5" fill="#1B2238" fill-opacity="0.23"/>
<circle cx="1433.5" cy="549.5" r="2.5" fill="#1B2238" fill-opacity="0.23"/>
<circle cx="1442.5" cy="549.5" r="2.5" fill="#1B2238" fill-opacity="0.23"/>
<circle cx="1406.5" cy="558.5" r="2.5" fill="#1B2238" fill-opacity="0.23"/>
<circle cx="1415.5" cy="558.5" r="2.5" fill="#1B2238" fill-opacity="0.23"/>
<circle cx="1424.5" cy="558.5" r="2.5" fill="#1B2238" fill-opacity="0.23"/>
<circle cx="1433.5" cy="558.5" r="2.5" fill="#1B2238" fill-opacity="0.23"/>
<circle cx="1442.5" cy="558.5" r="2.5" fill="#1B2238" fill-opacity="0.23"/>
<circle cx="1406.5" cy="567.5" r="2.5" fill="#1B2238" fill-opacity="0.23"/>
<circle cx="1415.5" cy="567.5" r="2.5" fill="#1B2238" fill-opacity="0.23"/>
<circle cx="1424.5" cy="567.5" r="2.5" fill="#1B2238" fill-opacity="0.23"/>
<circle cx="1433.5" cy="567.5" r="2.5" fill="#1B2238" fill-opacity="0.23"/>
<circle cx="1442.5" cy="567.5" r="2.5" fill="#1B2238" fill-opacity="0.23"/>
<circle cx="1406.5" cy="576.5" r="2.5" fill="#1B2238" fill-opacity="0.23"/>
<circle cx="1415.5" cy="576.5" r="2.5" fill="#1B2238" fill-opacity="0.23"/>
<circle cx="1424.5" cy="576.5" r="2.5" fill="#1B2238" fill-opacity="0.23"/>
<circle cx="1433.5" cy="576.5" r="2.5" fill="#1B2238" fill-opacity="0.23"/>
<circle cx="1442.5" cy="576.5" r="2.5" fill="#1B2238" fill-opacity="0.23"/>
<circle cx="1406.5" cy="585.5" r="2.5" fill="#1B2238" fill-opacity="0.23"/>
<circle cx="1415.5" cy="585.5" r="2.5" fill="#1B2238" fill-opacity="0.23"/>
<circle cx="1424.5" cy="585.5" r="2.5" fill="#1B2238" fill-opacity="0.23"/>
<circle cx="1433.5" cy="585.5" r="2.5" fill="#1B2238" fill-opacity="0.23"/>
<circle cx="1442.5" cy="585.5" r="2.5" fill="#1B2238" fill-opacity="0.23"/>
<circle cx="1406.5" cy="594.5" r="2.5" fill="#1B2238" fill-opacity="0.23"/>
<circle cx="1415.5" cy="594.5" r="2.5" fill="#1B2238" fill-opacity="0.23"/>
<circle cx="1424.5" cy="594.5" r="2.5" fill="#1B2238" fill-opacity="0.23"/>
<circle cx="1433.5" cy="594.5" r="2.5" fill="#1B2238" fill-opacity="0.23"/>
<circle cx="1442.5" cy="594.5" r="2.5" fill="#1B2238" fill-opacity="0.23"/>
<circle cx="1406.5" cy="603.5" r="2.5" fill="#1B2238" fill-opacity="0.23"/>
<circle cx="1415.5" cy="603.5" r="2.5" fill="#1B2238" fill-opacity="0.23"/>
<circle cx="1424.5" cy="603.5" r="2.5" fill="#1B2238" fill-opacity="0.23"/>
<circle cx="1433.5" cy="603.5" r="2.5" fill="#1B2238" fill-opacity="0.23"/>
<circle cx="1442.5" cy="603.5" r="2.5" fill="#1B2238" fill-opacity="0.23"/>
</g>
<defs>
<clipPath id="clip0_2_2">
<rect width="1920" height="1024" fill="white"/>
</clipPath>
</defs>
</svg>
